# xmcd CD database file
#
# Track frame offsets:
#	150
#	96342
#	145276
#
# Disc length: 2451 seconds
#
# Revision: 0
# Processed by: cddbd v1.5.2PL0 Copyright (c) Steve Scherf et al.
# Submitted via: CDex 1.70beta2
#
DISCID=25099103
DTITLE=Nordic Jazz Quintet - 1975 - Nordjazz - WAV
DYEAR=1975
DGENRE=Jazz
TTITLE0=Nordjazz
TTITLE1=Hysterical
TTITLE2=Silvana
EXTD=YEAR: 1975
EXTT0=
EXTT1=
EXTT2=
PLAYORDER=
